<svg width="32" height="32" viewBox="0 0 32 32" fill="none" xmlns="http://www.w3.org/2000/svg">
  <!-- Background circle with gradient -->
  <circle cx="16" cy="16" r="16" fill="url(#gradient)"/>
  
  <!-- Wardrobe icon - simplified hanger -->
  <path d="M16 8C18.5 8 20.5 10 20.5 12.5V14L22 15.5C22.5 16 22.5 16.5 22 17L20.5 18.5V22C20.5 23.5 19 25 17.5 25H14.5C13 25 11.5 23.5 11.5 22V18.5L10 17C9.5 16.5 9.5 16 10 15.5L11.5 14V12.5C11.5 10 13.5 8 16 8Z" fill="white"/>
  
  <!-- Sparkle/AI element -->
  <path d="M24 6L26 8L24 10L22 8L24 6Z" fill="white" opacity="0.8"/>
  <path d="M8 6L9 7L8 8L7 7L8 6Z" fill="white" opacity="0.6"/>
  
  <!-- Gradient definition -->
  <defs>
    <linearGradient id="gradient" x1="0%" y1="0%" x2="100%" y2="100%">
      <stop offset="0%" style="stop-color:#8B5CF6;stop-opacity:1" />
      <stop offset="100%" style="stop-color:#EC4899;stop-opacity:1" />
    </linearGradient>
  </defs>
</svg>
